<svg xmlns="http://www.w3.org/2000/svg" fill="none" viewBox="0 0 100 100"><g clip-path="url(#clip0_428_82)"><path d="M88.2439 51.7323L85.217 50.5241C84.799 49.0504 84.2114 47.6295 83.4664 46.2908L84.7477 43.2908C84.9464 42.8455 85.0161 42.3533 84.9486 41.8701C84.8811 41.3874 84.6796 40.9331 84.3666 40.5592C83.933 40.0258 83.4664 39.5313 82.9637 39.0168C82.4715 38.5369 81.9704 38.0704 81.4648 37.653L81.4654 37.6524C81.0904 37.3338 80.6333 37.1279 80.1467 37.057C79.6601 36.9861 79.1635 37.0542 78.7132 37.2523L76.644 38.1379V38.1373C76.5251 34.937 75.3627 31.8628 73.3337 29.3851C71.3047 26.9068 68.5207 25.1602 65.4069 24.4123C68.8237 22.1412 71.004 18.4223 71.3159 14.3315C71.6284 10.2405 70.0374 6.23377 67.0044 3.47105C63.971 0.708196 59.8337 -0.502661 55.7896 0.188625C51.7454 0.880596 48.2454 3.39734 46.3024 7.0112C44.3499 6.55025 42.317 6.55025 40.3639 7.0112C38.418 3.40405 34.9197 0.894054 30.8794 0.206482C26.8391 -0.481089 22.7076 0.730482 19.6786 3.49048C16.649 6.25048 15.0591 10.2522 15.3689 14.3388C15.6786 18.4252 17.8533 22.1412 21.264 24.4135C18.0591 25.1802 15.206 27.0028 13.163 29.5882C11.1194 32.173 10.0056 35.3706 10 38.6658V46.6658C10 48.0798 10.5619 49.4365 11.562 50.4369C12.5626 51.4369 13.9191 51.9989 15.3331 51.9989H24.6663V53.3321H24.6668C24.6668 54.7467 25.2288 56.1032 26.2288 57.1032C27.2288 58.1038 28.5854 58.6658 30 58.6658H42.235C42.4889 59.3923 43.043 59.9749 43.7561 60.2656L46.783 61.4738C47.201 62.9475 47.7886 64.3683 48.5336 65.707L47.2523 68.707C47.0536 69.1524 46.9839 69.6446 47.0514 70.1278C47.1189 70.6105 47.3204 71.0648 47.6334 71.4386C48.067 71.9721 48.5336 72.4665 49.0363 72.9811C49.5285 73.461 50.0296 73.9275 50.5352 74.3449L50.5346 74.3455C50.9096 74.6641 51.3667 74.87 51.8533 74.9409C52.3399 75.0118 52.8365 74.9437 53.2869 74.7456L56.288 73.4627C57.6256 74.2087 59.0447 74.798 60.5173 75.2176L61.7282 78.2495C61.9085 78.6993 62.2081 79.0916 62.5949 79.384C62.9816 79.6758 63.4408 79.8572 63.9224 79.9085C64.553 79.971 65.2316 80.0006 65.9956 80.0006C66.7596 80.0006 67.4381 79.971 68.0559 79.9102V79.9097C68.5413 79.86 69.004 79.6781 69.394 79.3846C69.7835 79.091 70.0854 78.6959 70.2668 78.2428L71.4749 75.216C72.9487 74.798 74.3695 74.2104 75.7082 73.4654L78.7082 74.7466C79.1535 74.9453 79.6457 75.0151 80.129 74.9475C80.6117 74.88 81.0659 74.6786 81.4398 74.3655C81.9733 73.9319 82.4677 73.4654 82.9822 72.9626C83.4622 72.4704 83.9287 71.9693 84.3461 71.4637L84.3466 71.4643C84.6653 71.0893 84.8712 70.6323 84.9421 70.1457C85.0129 69.659 84.9449 69.1624 84.7468 68.7121L83.4666 65.7071C84.2127 64.3695 84.8015 62.9504 85.2216 61.4778L88.2535 60.2669C88.7033 60.0866 89.0956 59.7869 89.3874 59.4002C89.6798 59.0135 89.8612 58.5542 89.912 58.0721C89.9745 57.4415 90.0041 56.7629 90.0041 55.999C90.0041 55.235 89.9745 54.5564 89.9137 53.9387C89.8629 53.4537 89.6804 52.9917 89.3863 52.6027C89.0922 52.2138 88.6971 51.913 88.244 51.7322L88.2439 51.7323ZM61.9996 26.6665C65.0102 26.671 67.9097 27.8061 70.1229 29.8468C72.336 31.8881 73.7022 34.6861 73.9504 37.6867C73.1469 37.3312 72.321 37.0288 71.4783 36.7827L70.2662 33.7502C70.0854 33.3005 69.7858 32.9082 69.3991 32.6163C69.0123 32.3239 68.5536 32.1425 68.0715 32.0918C66.6965 31.969 65.3131 31.969 63.9381 32.0918C63.4537 32.142 62.9927 32.3239 62.6038 32.6169C62.2154 32.9104 61.9141 33.3038 61.7327 33.7558L60.5246 36.7827C60.163 36.8854 59.8181 37.0293 59.4582 37.1521V37.1515C57.404 34.1103 54.2863 31.9484 50.7182 31.0901C52.5317 29.8809 54.0246 28.248 55.0659 26.3328C56.0285 26.5527 57.0123 26.6649 57.9994 26.6665L61.9996 26.6665ZM57.9996 2.66654C61.0107 2.6392 63.893 3.88641 65.9349 6.09954C67.9767 8.31268 68.9879 11.286 68.7194 14.2854C68.4505 17.2843 66.9259 20.0304 64.523 21.8451C62.1202 23.6593 59.062 24.3741 56.1033 23.8117C57.0308 20.7274 56.8064 17.4115 55.4722 14.4803C54.1379 11.5494 51.7847 9.2024 48.85 7.87597C50.7674 4.64668 54.244 2.66668 57.9996 2.66668V2.66654ZM53.9996 19.9994C53.9996 22.8287 52.8757 25.5413 50.8752 27.5418C48.8752 29.5424 46.162 30.6663 43.3327 30.6663C40.504 30.6663 37.7909 29.5424 35.7903 27.5418C33.7903 25.5413 32.6664 22.8287 32.6664 19.9994C32.6664 17.1701 33.7903 14.4575 35.7903 12.457C37.7909 10.4564 40.504 9.33254 43.3327 9.33254C46.1609 9.33589 48.8723 10.4609 50.8717 12.4604C52.8717 14.4604 53.9962 17.1714 53.9996 19.9994ZM17.9996 13.3325C17.9974 10.1981 19.3751 7.22097 21.7669 5.19411C24.1586 3.16783 27.321 2.29683 30.413 2.81297C33.5046 3.32971 36.2127 5.18125 37.8153 7.87554C34.8806 9.202 32.5273 11.5491 31.1932 14.4798C29.8595 17.4113 29.6352 20.727 30.562 23.8113C27.4499 24.4067 24.2344 23.5752 21.8009 21.5451C19.3673 19.5155 17.9722 16.5015 17.9996 13.3325ZM24.6664 45.3325V49.3325H15.3327C14.6257 49.3325 13.9471 49.0518 13.4472 48.5518C12.9472 48.0518 12.6665 47.3733 12.6665 46.6663V38.6663C12.6698 35.4844 13.9354 32.4341 16.1849 30.1847C18.4344 27.9353 21.4846 26.6697 24.6665 26.6663H28.6665C29.6536 26.6646 30.6375 26.5524 31.5995 26.3326C32.6363 28.2422 34.1212 29.8716 35.9265 31.0809C32.7222 31.8482 29.8696 33.6713 27.8278 36.2562C25.7853 38.8416 24.6715 42.0386 24.6665 45.3326L24.6664 45.3325ZM43.7507 51.7327H43.7502C43.3004 51.9135 42.9081 52.2132 42.6162 52.5999C42.3238 52.9866 42.1425 53.4453 42.0917 53.9274C42.0292 54.5569 41.9996 55.2355 41.9996 55.9994H29.9996C29.2926 55.9994 28.614 55.7188 28.114 55.2182C27.614 54.7182 27.3328 54.0402 27.3328 53.3326V45.3326C27.3367 42.1512 28.6018 39.101 30.8518 36.8516C33.1012 34.6016 36.1515 33.3366 39.3328 33.3326H47.3328C51.1352 33.3427 54.7089 35.1508 56.9689 38.2088C56.7452 38.3232 56.5113 38.4141 56.2915 38.5369L53.2915 37.2556C52.8462 37.057 52.354 36.9878 51.8713 37.0553C51.388 37.1228 50.9338 37.3243 50.5599 37.6368C50.0264 38.0704 49.532 38.5369 49.0175 39.0397C48.5375 39.5319 48.071 40.033 47.6536 40.5385L47.6531 40.538C47.3344 40.913 47.1285 41.37 47.0576 41.8566C46.9868 42.3432 47.0548 42.8399 47.2529 43.2902L48.5359 46.2913C47.7898 47.6289 47.2005 49.048 46.7809 50.5206L43.7507 51.7327ZM87.2536 57.7941L83.6069 59.25C83.2079 59.4096 82.9099 59.7516 82.8072 60.1685C82.392 61.8471 81.7263 63.4531 80.8323 64.9331C80.6114 65.2997 80.5801 65.7506 80.7481 66.1446L82.3055 69.7444C81.9188 70.2126 81.5053 70.659 81.0974 71.0776C80.6599 71.5045 80.2134 71.9213 79.7559 72.2946L76.1399 70.7505L76.1404 70.7516C75.7464 70.5831 75.2955 70.6143 74.9284 70.8353C73.4506 71.7293 71.8464 72.395 70.1695 72.8102C69.7526 72.9128 69.4106 73.2108 69.251 73.6098L67.8124 77.2527C66.6149 77.3604 65.4101 77.3604 64.2125 77.2527L62.7567 73.606C62.5971 73.207 62.255 72.909 61.8382 72.8063C60.1573 72.3923 58.5492 71.7265 57.067 70.8315C56.8594 70.7059 56.6211 70.6395 56.3778 70.6395C56.1982 70.6395 56.0201 70.6763 55.8555 70.7472L52.2557 72.3046C51.7875 71.9179 51.3411 71.5044 50.9225 71.0965C50.4956 70.659 50.0788 70.2125 49.7055 69.755L51.2496 66.139L51.2485 66.1395C51.417 65.7455 51.3858 65.2946 51.1648 64.9275C50.2747 63.4486 49.6129 61.8449 49.2005 60.1686C49.0978 59.7517 48.7998 59.4097 48.4008 59.2501L44.7474 57.8115C44.6938 57.2691 44.6676 56.677 44.6676 55.9995C44.6637 55.4002 44.6905 54.8014 44.7474 54.2049L48.4008 52.7491C48.7998 52.5895 49.0978 52.2474 49.2005 51.8306C49.6134 50.1525 50.2769 48.5465 51.1686 47.066C51.3896 46.6993 51.4209 46.2484 51.2529 45.8545L49.6955 42.2546C50.0822 41.7864 50.4957 41.34 50.9036 40.9215C51.3411 40.4946 51.7875 40.0777 52.2451 39.7044L55.8673 41.2518C56.2612 41.4198 56.7121 41.3885 57.0793 41.1676C58.5553 40.2769 60.1575 39.6134 61.8316 39.1994C62.2485 39.0968 62.5905 38.7988 62.7501 38.3998L64.1887 34.753C65.3863 34.6453 66.591 34.6453 67.7886 34.753L69.2511 38.3998C69.4107 38.7988 69.7528 39.0967 70.1697 39.1994C71.8477 39.6124 73.4537 40.2759 74.9342 41.1676C75.3009 41.3886 75.7518 41.4198 76.1457 41.2518L79.7456 39.6944C80.2138 40.0811 80.6602 40.4946 81.0787 40.9025C81.5056 41.34 81.9225 41.7865 82.2958 42.2441L80.7484 45.8662C80.5804 46.2602 80.6117 46.7111 80.8326 47.0783C81.7266 48.556 82.3918 50.1603 82.8075 51.8371C82.9102 52.254 83.2082 52.596 83.6072 52.7556L87.2539 54.1942C87.3075 54.7366 87.3337 55.3287 87.3337 56.0062C87.337 56.6033 87.3102 57.1999 87.2539 57.7942L87.2536 57.7941Z" fill="#0A99FD"/><path d="M65.9989 41.332C62.1089 41.332 58.3783 42.8772 55.6277 45.6277C52.8772 48.3783 51.332 52.1087 51.332 55.9989C51.332 59.889 52.8772 63.6195 55.6277 66.37C58.3783 69.1206 62.1087 70.6657 65.9989 70.6657C69.889 70.6657 73.6195 69.1206 76.37 66.37C79.1206 63.6195 80.6658 59.889 80.6658 55.9989C80.6607 52.1105 79.1145 48.3829 76.365 45.6329C73.615 42.8835 69.8873 41.3372 65.999 41.3322L65.9989 41.332ZM65.9989 67.9992C62.8165 67.9992 59.7639 66.7347 57.5135 64.4846C55.2635 62.234 53.9989 59.1816 53.9989 55.9992C53.9989 52.8167 55.2634 49.7642 57.5135 47.5137C59.764 45.2637 62.8165 43.9992 65.9989 43.9992C69.1813 43.9992 72.2339 45.2637 74.4843 47.5137C76.7343 49.7643 77.9989 52.8167 77.9989 55.9992C77.9955 59.1806 76.7299 62.2307 74.4805 64.4807C72.2305 66.7302 69.1802 67.9957 65.9989 67.9992Z" fill="#0A99FD"/><path d="M65.9992 46.667C63.5237 46.667 61.1499 47.6502 59.3993 49.4003C57.6493 51.1508 56.666 53.5247 56.666 56.0001C56.666 58.4756 57.6493 60.8494 59.3993 62.6C61.1499 64.35 63.5237 65.3333 65.9992 65.3333C68.4746 65.3333 70.8484 64.35 72.599 62.6C74.349 60.8494 75.3323 58.4756 75.3323 56.0001C75.3295 53.5258 74.3451 51.1536 72.5952 49.4041C70.8457 47.6541 68.4734 46.6697 65.9992 46.667ZM65.9992 62.667C64.2313 62.667 62.5354 61.9644 61.2849 60.7144C60.0349 59.4639 59.3323 57.768 59.3323 56.0001C59.3323 54.2323 60.0349 52.5364 61.2849 51.2858C62.5354 50.0358 64.2313 49.3333 65.9992 49.3333C67.767 49.3333 69.4629 50.0358 70.7134 51.2858C71.9634 52.5364 72.666 54.2323 72.666 56.0001C72.6638 57.7674 71.9607 59.4621 70.7106 60.7116C69.4611 61.9616 67.7664 62.6647 65.9992 62.667Z" fill="#0A99FD"/></g><defs><clipPath id="clip0_428_82"><rect width="100" height="100" fill="white"/></clipPath></defs></svg>