<svg xmlns="http://www.w3.org/2000/svg" fill="none" viewBox="16.25 11.25 67.5 57.5"><path d="M80 11.251H20C19.0056 11.2515 18.0525 11.6472 17.3493 12.3503C16.6468 13.0534 16.2511 14.0066 16.25 15.001V65.001C16.2511 65.9949 16.6468 66.948 17.3493 67.6512C18.0525 68.3543 19.0056 68.7499 20 68.751H80C80.9945 68.7499 81.9476 68.3543 82.6508 67.6512C83.3533 66.948 83.749 65.9949 83.7501 65.001V15.001C83.749 14.0066 83.3533 13.0534 82.6508 12.3503C81.9476 11.6472 80.9945 11.2515 80 11.251ZM20 13.751H80C80.6898 13.7515 81.2489 14.3107 81.25 15.001V24.0803H18.75V15.001C18.7512 14.3107 19.3103 13.7515 20 13.751ZM80 66.251H20C19.3103 66.2499 18.7512 65.6907 18.75 65.001V26.5795H81.25V65.001C81.2489 65.6907 80.6898 66.2499 80 66.251Z" fill="#28DF99"/><path d="M25.0781 22.7236C26.0725 22.7236 27.0268 22.3285 27.7298 21.6248C28.4329 20.9217 28.828 19.968 28.828 18.9736C28.828 17.9786 28.4329 17.0248 27.7298 16.3218C27.0266 15.6187 26.0723 15.2236 25.0781 15.2236C24.0836 15.2236 23.1299 15.6187 22.4263 16.3218C21.7232 17.025 21.3281 17.9787 21.3281 18.9736C21.3292 19.9674 21.7249 20.9211 22.428 21.6237C23.1306 22.3268 24.0843 22.7225 25.0782 22.7236L25.0781 22.7236ZM25.0781 17.7236C25.5836 17.7236 26.0396 18.0277 26.2332 18.4954C26.4263 18.9624 26.3197 19.4998 25.962 19.8575C25.6043 20.2147 25.0669 20.3218 24.5998 20.1282C24.1327 19.9351 23.8281 19.4792 23.8281 18.9736C23.8292 18.2833 24.3883 17.7242 25.0781 17.7236Z" fill="#28DF99"/><path d="M33.1425 22.7236C34.1369 22.7236 35.0907 22.3285 35.7938 21.6248C36.4975 20.9217 36.8926 19.968 36.8926 18.9736C36.8926 17.9786 36.4975 17.0248 35.7938 16.3218C35.0907 15.6187 34.1369 15.2236 33.1425 15.2236C32.1475 15.2236 31.1938 15.6187 30.4908 16.3218C29.7878 17.025 29.3926 17.9787 29.3926 18.9736C29.3937 19.9674 29.7888 20.9211 30.4919 21.6237C31.195 22.3268 32.1482 22.7225 33.1426 22.7236L33.1425 22.7236ZM33.1425 17.7236C33.6481 17.7236 34.1034 18.0277 34.2971 18.4954C34.4907 18.9624 34.3836 19.4998 34.0264 19.8575C33.6687 20.2147 33.1308 20.3218 32.6637 20.1282C32.1966 19.9351 31.8925 19.4792 31.8925 18.9736C31.8931 18.2833 32.4522 17.7242 33.1425 17.7236Z" fill="#28DF99"/><path d="M41.205 22.7236C42.1994 22.7236 43.1537 22.3285 43.8567 21.6248C44.5598 20.9217 44.9549 19.968 44.9549 18.9736C44.9549 17.9786 44.5598 17.0248 43.8567 16.3218C43.1536 15.6188 42.1993 15.2236 41.205 15.2236C40.2106 15.2236 39.2569 15.6187 38.5533 16.3218C37.8502 17.025 37.4551 17.9787 37.4551 18.9736C37.4562 19.9674 37.8518 20.9211 38.5544 21.6237C39.2575 22.3268 40.2107 22.7225 41.2051 22.7236L41.205 22.7236ZM41.205 17.7236C41.7106 17.7236 42.1665 18.0277 42.3601 18.4954C42.5532 18.9624 42.4466 19.4998 42.0889 19.8575C41.7312 20.2147 41.1938 20.3218 40.7268 20.1282C40.2597 19.9351 39.955 19.4792 39.955 18.9736C39.9561 18.2833 40.5153 17.7242 41.205 17.7236Z" fill="#28DF99"/><path d="M58.6424 38.539C58.153 38.0591 57.3684 38.063 56.8839 38.5479C56.399 39.0323 56.3951 39.8169 56.875 40.3064L64.11 47.5424L56.875 54.7762V54.7768C56.6367 55.01 56.5017 55.3292 56.5 55.6629C56.4983 55.9966 56.63 56.3175 56.8661 56.553C57.1021 56.7891 57.4224 56.9208 57.7562 56.9191C58.0899 56.9174 58.4091 56.7824 58.6423 56.5441L66.7612 48.4264C66.9961 48.192 67.1278 47.8745 67.1278 47.543C67.1278 47.2115 66.9961 46.8934 66.7612 46.6591L58.6424 38.539Z" fill="#28DF99"/><path d="M42.762 38.5389C42.5276 38.3046 42.2095 38.1729 41.8781 38.1729C41.5466 38.1729 41.2291 38.3045 40.9947 38.5389L32.8758 46.6589C32.6415 46.8933 32.5098 47.2114 32.5098 47.5429C32.5098 47.8743 32.6415 48.1919 32.8758 48.4262L40.9947 56.5439C41.228 56.7822 41.5471 56.9173 41.8808 56.9189C42.2145 56.9206 42.5349 56.7889 42.7709 56.5529C43.007 56.3168 43.1387 55.9965 43.137 55.6628C43.1353 55.3291 43.0003 55.0099 42.762 54.7766L35.527 47.5428L42.762 40.3068V40.3062C42.9964 40.0719 43.1281 39.7543 43.1281 39.4229C43.1281 39.0914 42.9964 38.7733 42.762 38.5389Z" fill="#28DF99"/><path d="M55.1353 33.6943C54.4868 33.4594 53.7703 33.7936 53.5337 34.4415L44.6821 58.7601C44.5677 59.072 44.5817 59.4163 44.7218 59.7177C44.8613 60.019 45.1157 60.2523 45.4277 60.3661C45.7402 60.4794 46.0845 60.4643 46.3853 60.3231C46.686 60.1819 46.9187 59.9269 47.0309 59.6144L55.8819 35.2959C55.9957 34.9845 55.9812 34.6407 55.8406 34.3399C55.7005 34.0397 55.4466 33.807 55.1352 33.6943L55.1353 33.6943Z" fill="#28DF99"/></svg>