<svg xmlns="http://www.w3.org/2000/svg" fill="none" viewBox="19 18 90.13 91"><path d="M100.595 54.9172C102.221 51.9885 103.076 48.7095 103.076 45.347C103.076 41.9057 102.162 38.5023 100.43 35.5039C95.2608 26.557 84.0829 23.1991 74.9086 27.5596C74.082 26.1839 73.0917 24.913 71.9481 23.7694C68.2292 20.049 63.2743 18 57.9993 18C47.6708 18 39.179 25.9989 38.3646 36.1515C31.4683 36.2774 25.0831 40.022 21.6372 45.9961C16.4609 54.946 19.1529 66.3119 27.5386 72.0828C25.9112 75.0115 25.0573 78.2905 25.0573 81.6545C25.0573 85.0958 25.9719 88.4992 27.7039 91.4977C31.353 97.8161 38.0021 101.356 44.824 101.356C47.6632 101.356 50.5343 100.737 53.2309 99.4556C54.056 100.827 55.0449 102.093 56.1839 103.234C59.9027 106.951 64.8577 109 70.1327 109C80.4612 109 88.953 101.001 89.7674 90.8485C96.6637 90.7227 103.049 86.978 106.495 81.0038C111.673 72.054 108.981 60.6881 100.595 54.9172ZM97.8027 37.019C99.2678 39.5579 100.043 42.4365 100.043 45.3455C100.043 48.1438 99.3391 50.8722 98.0075 53.3186L76.9577 41.1641C76.489 40.8941 75.9112 40.8941 75.4425 41.1641L53.4311 53.8419L53.4478 43.3556L74.9723 30.9265C74.9966 30.9144 75.0209 30.9008 75.0436 30.8886C82.9955 26.3129 93.2087 29.0641 97.8027 37.019ZM74.7069 69.6546L64.0523 75.7911L53.4069 69.6258L53.4266 57.3438L64.0811 51.2074L74.7266 57.3727L74.7069 69.6546ZM41.316 37.6894C41.3296 28.506 48.8129 21.0333 57.9993 21.0333C62.4644 21.0333 66.6565 22.7669 69.8035 25.9124C70.7393 26.8482 71.5523 27.8841 72.2363 29.0034L51.1743 41.1641C50.7057 41.4355 50.416 41.9345 50.416 42.4744L50.375 67.871L41.316 62.6264V37.6894ZM24.2626 47.5143C27.1549 42.4972 32.4996 39.3562 38.2827 39.2015V63.5C38.2827 64.0399 38.5708 64.542 39.0395 64.8119L61.0175 77.5383L51.9327 82.7708L30.4703 70.3766C30.4324 70.3493 30.393 70.325 30.352 70.3007C22.3941 65.6901 19.661 55.4692 24.2626 47.5143ZM30.3293 89.981C28.8642 87.4421 28.0891 84.5635 28.0891 81.6545C28.0891 78.8563 28.7929 76.1278 30.1245 73.6814L51.1743 85.836C51.4094 85.9709 51.6703 86.0392 51.9327 86.0392C52.1935 86.0392 52.4559 85.9709 52.6895 85.836L74.7009 73.1581L74.6842 83.6444L53.1596 96.0735C53.1354 96.0856 53.1111 96.0992 53.0884 96.1114C45.1365 100.686 34.9248 97.9344 30.3293 89.981ZM86.816 89.3106C86.8023 98.4941 79.3191 105.967 70.1327 105.967C65.6676 105.967 61.4755 104.233 58.3284 101.088C57.3927 100.152 56.5797 99.1159 55.8957 97.9966L76.9577 85.836C77.4263 85.5645 77.716 85.0655 77.716 84.5255L77.7569 59.129L86.816 64.3736V89.3106ZM103.869 79.4857C100.977 84.5028 95.6324 87.6438 89.8493 87.7985V63.5C89.8493 62.9601 89.5612 62.458 89.0925 62.1881L67.1145 49.4602L76.1993 44.2292L97.6617 56.6234C97.6996 56.6507 97.739 56.675 97.78 56.6993C105.738 61.3099 108.471 71.5308 103.869 79.4857Z" fill="#6C3261"/></svg>