<svg xmlns="http://www.w3.org/2000/svg" fill="none" viewBox="17 7 66 66"><path d="M67.6 57.6006H65.4V62.0006H45.6V64.2006H65.4V67.5006C65.4 68.3757 65.0524 69.2155 64.4336 69.8341C63.8148 70.4527 62.9751 70.8005 62.1001 70.8005H37.9001C36.721 70.7986 35.6318 70.1705 35.0401 69.1505L33.1348 70.2505C34.1213 71.9497 35.9358 72.9966 37.9001 73.0005H62.1001C63.5581 72.9986 64.9562 72.4186 65.9874 71.3879C67.0182 70.3566 67.5981 68.9586 67.6001 67.5005L67.6 57.6006Z" fill="#FF5151"/><path d="M48.9004 66.3994H51.1004V68.5994H48.9004V66.3994Z" fill="#FF5151"/><path d="M55.4989 36.7001V34.5001H52.1429C51.8778 31.1024 50.4075 27.9109 47.9978 25.5012C45.5881 23.0915 42.3966 21.6213 38.9989 21.356V18.0001H36.7989V21.356C36.0579 21.413 35.3223 21.5274 34.5989 21.6993V15.8H52.1989V13.6H34.5989V12.5C34.5989 11.6249 34.9466 10.7851 35.5653 10.1665C36.1841 9.54785 37.0239 9.20006 37.8988 9.20006H62.0988C62.9027 9.20006 63.6786 9.49372 64.2811 10.0251L65.7366 8.37506C64.7319 7.48868 63.4384 6.99962 62.0987 7H37.8987C36.4407 7.00196 35.0426 7.58192 34.0114 8.61266C32.9806 9.64391 32.4007 11.042 32.3987 12.5V22.4C29.9694 23.4175 27.8676 25.0856 26.3252 27.2204C24.7823 29.355 23.8586 31.8743 23.6548 34.5H20.2988V36.7H23.6573C23.9082 40.1031 25.373 43.3025 27.7852 45.7161C30.1974 48.1297 33.3962 49.5965 36.7988 49.8495V53.2H38.9988V49.8495C42.4014 49.5966 45.6003 48.1297 48.0124 45.7161C50.4245 43.3025 51.8894 40.1032 52.1404 36.7L55.4989 36.7001ZM36.7989 45.5001V47.6495C35.2648 47.5115 33.7709 47.0804 32.3989 46.3801V44.4001C32.3989 42.4353 33.4473 40.6193 35.1489 39.6371C36.8504 38.6545 38.9473 38.6545 40.6489 39.6371C42.3504 40.6193 43.3989 42.4353 43.3989 44.4001V46.3801C42.0268 47.0813 40.5335 47.513 38.9989 47.6529V45.5001H36.7989ZM34.5989 33.4001C34.5989 32.525 34.9466 31.6852 35.5653 31.0666C36.1841 30.4479 37.0239 30.1001 37.8988 30.1001C38.7738 30.1001 39.6137 30.4478 40.2323 31.0666C40.851 31.6853 41.1988 32.5251 41.1988 33.4001C41.1988 34.275 40.8511 35.1149 40.2323 35.7336C39.6136 36.3522 38.7738 36.7 37.8988 36.7C37.0239 36.7 36.184 36.3523 35.5653 35.7336C34.9467 35.1148 34.5989 34.275 34.5989 33.4001ZM45.9652 44.6201C45.8464 44.7301 45.7197 44.818 45.5989 44.9191V44.4001C45.5974 42.9902 45.209 41.6078 44.4763 40.4037C43.7431 39.1996 42.6937 38.2199 41.4419 37.5713C42.5994 36.5965 43.3036 35.1881 43.39 33.6775C43.4759 32.1669 42.9362 30.6879 41.8971 29.5879C40.858 28.4879 39.4118 27.8647 37.8988 27.8647C36.3858 27.8647 34.9396 28.4879 33.9004 29.5879C32.8613 30.6879 32.3216 32.1671 32.4076 33.6775C32.494 35.1881 33.1982 36.5965 34.3557 37.5713C33.1039 38.22 32.0545 39.1996 31.3213 40.4037C30.5886 41.6078 30.2002 42.9902 30.1987 44.4001V44.9245C30.0764 44.8243 29.9502 44.731 29.8324 44.6255C27.5528 42.5816 26.1321 39.7496 25.8571 36.7001H27.9987V34.5001H25.8546C26.1149 31.6852 27.3519 29.0506 29.3506 27.052C31.3492 25.0534 33.9838 23.8164 36.7987 23.556V25.7001H38.9987V23.556C41.8136 23.8163 44.4482 25.0533 46.4468 27.052C48.4454 29.0506 49.6824 31.6852 49.9427 34.5001H47.7987V36.7001H49.9402C49.6652 39.7496 48.2446 42.5816 45.965 44.6255L45.9652 44.6201Z" fill="#FF5151"/><path d="M79.7004 26.7994C79.9921 26.7994 80.272 26.6835 80.4782 26.4773C80.6845 26.271 80.8004 25.9911 80.8004 25.6994V12.4994C80.8004 12.2077 80.6845 11.9278 80.4782 11.7216C80.272 11.5153 79.9921 11.3994 79.7004 11.3994H55.5004C54.8929 11.3994 54.4004 11.892 54.4004 12.4994V25.6994C54.4004 25.9911 54.5163 26.271 54.7225 26.4773C54.9288 26.6835 55.2087 26.7994 55.5004 26.7994H79.7004ZM56.6004 13.5994H78.6004V24.5994H56.6004V13.5994Z" fill="#FF5151"/><path d="M58.7988 15.7998H63.1988V17.9998H58.7988V15.7998Z" fill="#FF5151"/><path d="M65.4004 15.7998H76.4004V17.9998H65.4004V15.7998Z" fill="#FF5151"/><path d="M58.7988 20.2002H76.3988V22.4002H58.7988V20.2002Z" fill="#FF5151"/><path d="M79.5046 29.0003C78.6526 29.0018 77.8311 29.3146 77.1946 29.8803L67.5991 38.3395V29.0003H65.3991V40.0003H65.7168L59.4591 45.5225C57.4977 45.6344 55.6537 46.4923 54.3043 47.9193C52.9544 49.3468 52.2015 51.2361 52.1991 53.2003V55.1406C52.2011 55.6759 52.0533 56.2008 51.7719 56.6561C51.4905 57.1113 51.0868 57.4786 50.6076 57.7158C50.1504 57.9437 49.9102 58.4559 50.0276 58.9528C50.1445 59.4498 50.5884 59.8009 51.0991 59.8004H58.7991C60.7634 59.798 62.6525 59.0452 64.0801 57.6952C65.5072 56.3458 66.3651 54.5018 66.477 52.5404L82.1259 34.8059C82.7221 34.1297 83.0339 33.2492 82.9966 32.3486C82.9588 31.4475 82.5742 30.5964 81.9236 29.9723C81.2729 29.3487 80.4062 29 79.5051 29L79.5046 29.0003ZM58.7995 57.6003H53.7689C54.1843 56.847 54.4009 56.0009 54.3994 55.1406V53.2003C54.4014 51.8185 54.9224 50.4877 55.8598 49.4722C56.7973 48.4566 58.082 47.8305 59.4594 47.7181L64.2817 52.5403C64.1697 53.9178 63.5436 55.203 62.5281 56.1404C61.5126 57.0779 60.1813 57.599 58.7994 57.6003H58.7995ZM80.4764 33.3513L65.3504 50.495L61.5058 46.6514L78.6495 31.5242C79.1622 31.0739 79.9366 31.0989 80.4188 31.5816C80.9015 32.0639 80.9266 32.8383 80.4762 33.3509L80.4764 33.3513Z" fill="#FF5151"/><path d="M18.1 67.5H42.3C42.5917 67.5 42.8716 67.3841 43.0779 67.1779C43.2841 66.9716 43.4 66.6917 43.4 66.4V57.6C43.4 57.3083 43.2841 57.0284 43.0779 56.8221C42.8716 56.6159 42.5917 56.5 42.3 56.5H34.6V51H32.4V56.5H18.1C17.4925 56.5 17 56.9925 17 57.6V66.4C17 66.6917 17.1159 66.9716 17.3221 67.1779C17.5284 67.3841 17.8083 67.5 18.1 67.5ZM19.2 58.7H41.2V65.3H19.2V58.7Z" fill="#FF5151"/><path d="M21.4004 60.8994H26.9004V63.0994H21.4004V60.8994Z" fill="#FF5151"/><path d="M29.0996 60.8994H38.9996V63.0994H29.0996V60.8994Z" fill="#FF5151"/><path d="M18.1 22.3994H29.1C29.3917 22.3994 29.6716 22.2835 29.8779 22.0773C30.0841 21.871 30.2 21.5911 30.2 21.2994V12.4994C30.2 12.2077 30.0841 11.9278 29.8779 11.7216C29.6716 11.5153 29.3917 11.3994 29.1 11.3994H18.1C17.4925 11.3994 17 11.892 17 12.4994V21.2994C17 21.5911 17.1159 21.871 17.3221 22.0773C17.5284 22.2835 17.8083 22.3994 18.1 22.3994ZM19.2 13.5994H28V20.1994H19.2V13.5994Z" fill="#FF5151"/><path d="M21.4004 15.7998H25.8004V17.9998H21.4004V15.7998Z" fill="#FF5151"/></svg>