<svg xmlns="http://www.w3.org/2000/svg" fill="none" viewBox="25.37 5.25 49.26 69.5"><path d="M66.9821 45.8983L60.6042 43.3503C65.2571 42.5964 67.669 39.9016 67.7934 39.7543C67.9764 39.5372 68.0445 39.2476 67.9809 38.9708C67.9167 38.694 67.7275 38.4652 67.4675 38.3492C65.9999 37.6974 64.3402 36.252 63.9575 33.151L64.9357 33.1494C67.4524 32.9619 69.4246 30.8391 69.4246 28.3156V22.1476C69.4246 20.4395 68.5317 18.9428 67.193 18.0791C65.342 10.6215 58.2276 5.24707 50.0916 5.24707C41.7066 5.24707 34.5259 10.8375 32.873 18.5808C31.902 19.4681 31.2809 20.7321 31.2809 22.1484V28.3164C31.2809 30.7421 33.1096 32.7795 35.5449 33.1032C34.9143 35.9531 33.8122 37.6691 32.19 38.2192C31.9244 38.3096 31.7162 38.5166 31.6258 38.7812C31.5354 39.0457 31.5717 39.3375 31.7263 39.5713C31.8145 39.7047 33.6621 42.3855 39.7731 43.2058L32.945 46.0243C28.272 48.3786 25.3691 53.0925 25.3691 58.325V73.8465C25.3691 74.3442 25.7737 74.7499 26.2715 74.7499H73.6715C74.1693 74.7499 74.5727 74.3465 74.5749 73.8509L74.6324 58.2309C74.6307 52.9994 71.7267 48.2856 66.9817 45.8989L66.9821 45.8983ZM67.6171 22.1483V28.3163C67.6171 29.8995 66.3811 31.2326 64.8694 31.3476H63.8756C63.8772 31.2935 63.8705 31.2494 63.8733 31.1947C64.2115 23.6908 63.7294 19.7974 63.6323 19.1054H64.5765C66.2528 19.1049 67.6172 20.4698 67.6172 22.1484L67.6171 22.1483ZM50.0914 7.05117C56.9626 7.05117 62.9737 11.31 65.0514 17.3475C64.8929 17.3318 64.7389 17.2995 64.5765 17.2995H63.2875C62.7802 15.2845 61.8349 13.694 60.4292 12.5946C58.3689 10.9836 55.9688 10.8932 55.0436 10.9339C53.8009 10.0076 49.0475 7.01032 43.2673 10.2174C40.5012 11.752 38.3973 14.2782 37.2746 17.2988H36.129C35.7757 17.2988 35.4331 17.3412 35.1011 17.4138C37.1485 11.3228 43.1374 7.05105 50.0911 7.05105L50.0914 7.05117ZM33.0857 28.3155V22.1475C33.0857 20.4695 34.4507 19.1039 36.1281 19.1039H36.7252C36.7169 19.1407 36.7035 19.1753 36.6957 19.2116C36.3089 20.9777 36.1304 22.9136 36.1655 24.9677C36.2079 27.4554 36.093 29.5476 35.8525 31.3349C34.2989 31.1926 33.0858 29.8806 33.0858 28.3153L33.0857 28.3155ZM34.0254 39.3105C36.0226 37.9762 37.021 35.3567 37.5199 32.4316C37.5333 32.3708 37.5567 32.3139 37.5567 32.2486C37.5567 32.2402 37.5522 32.2335 37.5522 32.2257C37.9417 29.8133 38.0093 27.214 37.9713 24.9371C37.9384 23.0231 38.1013 21.2273 38.4585 19.5967C39.1901 16.2384 41.2638 13.3947 44.1438 11.796C49.7191 8.70341 53.9831 12.3763 54.1593 12.5343C54.3513 12.705 54.6153 12.7876 54.8686 12.7547C55.1108 12.7296 60.9796 12.1157 61.8212 19.2044C61.8279 19.2429 62.4272 23.1531 62.0701 31.1118C62.0583 31.3697 62.0773 31.5945 62.0784 31.8384C60.9674 33.0884 59.6291 34.0973 58.1226 34.8055C57.5138 34.3708 56.6064 34.2631 55.733 34.6242C54.5009 35.1337 53.8329 36.3479 54.2414 37.3362C54.6499 38.3245 55.9803 38.7123 57.2124 38.2028C58.0411 37.8602 58.5785 37.195 58.7409 36.498C60.031 35.9092 61.2259 35.1447 62.281 34.2022C62.8268 36.9265 64.2704 38.4868 65.5829 39.3647C64.243 40.4411 61.2591 42.2028 56.5477 41.6761C56.4484 41.6627 56.3474 41.6694 56.2525 41.6917C55.8161 41.7888 55.6939 41.8424 54.1772 48.6777C51.8915 49.6453 48.2475 49.7168 45.8034 48.8479C45.0417 45.2732 44.4842 42.6621 44.4105 42.3395C44.3179 41.9299 43.9524 41.6386 43.5311 41.6386C38.0238 41.6386 35.2398 40.2162 34.0255 39.3105L34.0254 39.3105ZM57.4954 52.234C58.8615 54.8312 58.6896 57.9577 57.0501 60.3919L51.7504 68.2613C52.1751 66.3177 52.7839 63.5253 53.6628 59.485C54.823 54.1452 56.1924 47.85 56.8783 44.7479L59.4653 48.4772C59.8246 48.9839 59.8749 49.5977 59.6042 50.12C59.3486 50.6156 58.8592 50.9124 58.2951 50.9124C57.9798 50.9124 57.6868 51.0776 57.5216 51.3477C57.3587 51.6184 57.3503 51.9543 57.4954 52.2344L57.4954 52.234ZM42.394 51.3468C42.2288 51.0767 41.9359 50.9115 41.6206 50.9115C41.0519 50.9115 40.5564 50.6096 40.2941 50.1029C40.0318 49.5973 40.0715 49.0175 40.4001 48.5516L43.0837 44.7475C43.9453 48.7709 45.8917 57.9377 47.2846 64.4917C47.563 65.8015 47.8186 67.004 48.0474 68.0822L42.8683 60.3913C41.2287 57.9572 41.0568 54.8316 42.4207 52.2335C42.5658 51.9539 42.5569 51.6179 42.3939 51.3467L42.394 51.3468ZM27.174 72.9425V58.3239C27.174 53.7765 29.6969 49.6822 33.6957 47.6638L40.9184 44.6845L38.924 47.5109C38.2103 48.5221 38.1216 49.8335 38.6902 50.9333C39.054 51.6342 39.6422 52.166 40.3409 52.4596C39.217 55.4083 39.5809 58.7415 41.3699 61.401L49.1445 72.9423L27.1745 72.9418L27.174 72.9425ZM49.0512 64.1166C48.1577 59.9123 47.1097 54.9826 46.2336 50.8689C47.3301 51.1479 48.536 51.3092 49.7737 51.3092C51.1805 51.3092 52.5232 51.1077 53.7184 50.7567C53.2352 52.9582 52.6426 55.6803 51.8982 59.1016C51.1844 62.3829 50.4567 65.7237 49.9172 68.2003C49.666 67.0122 49.3703 65.6216 49.0511 64.1166L49.0512 64.1166ZM72.7712 72.9425H50.774L58.5486 61.4012C60.3399 58.7405 60.7014 55.4073 59.5754 52.4598C60.2673 52.1679 60.8494 51.6422 61.2082 50.9503C61.7858 49.8343 61.6842 48.4878 60.946 47.4419L59.0135 44.6573L66.2418 47.5418C70.3032 49.588 72.8244 53.6823 72.8244 58.2259L72.7712 72.9425Z" fill="#393E46"/></svg>